# xmcd
#
# Track frame offsets: 
#        150
#        9955
#        22902
#        38790
#        57950
#        73850
#        90190
#        116840
#        136162
#        155837
#        176012
#        191927
#        208407
#        222545
#        239592
#
# Disc length: 3547 seconds
#
# Revision: 4
# Processed by: cddbd v1.4PL0 Copyright (c) Steve Scherf et al.
# Submitted via: ExactAudioCopy v0.90a11
#
DISCID=dd0dd90f
DTITLE=Paolo Conte - Tournée 2 [CD2]
DYEAR=1900
DGENRE=
TTITLE0=Rebus
TTITLE1=Tua cugina prima (Tutti a Venezia)
TTITLE2=Spassiunatamente
TTITLE3=Schiava del Politeama
TTITLE4=La frase
TTITLE5=Sijmadicandhapajiee
TTITLE6=L'avance
TTITLE7=Il treno va
TTITLE8=I giardini pensili hanno fatto il loro tempo
TTITLE9=Don't throw it in the wc
TTITLE10=Per quel che vale
TTITLE11=Do-do
TTITLE12=Una di queste notti
TTITLE13=Irresistibile
TTITLE14=Roba di Amilcare
EXTD=
EXTT0=
EXTT1=
EXTT2=
EXTT3=
EXTT4=
EXTT5=
EXTT6=
EXTT7=
EXTT8=
EXTT9=
EXTT10=
EXTT11=
EXTT12=
EXTT13=
EXTT14=
PLAYORDER=
